<svg aria-hidden="true" style="width:0;height:0;position:absolute;overflow:hidden" xmlns="http://www.w3.org/2000/svg"><defs><symbol id="icon-film" viewBox="0 0 32 32"><path fill="none" stroke-linejoin="round" stroke-linecap="round" stroke-width="2.667" d="M26.427 2.667H5.574a2.907 2.907 0 0 0-2.907 2.907v20.853a2.907 2.907 0 0 0 2.907 2.907h20.853a2.907 2.907 0 0 0 2.907-2.907V5.574a2.907 2.907 0 0 0-2.907-2.907zM9.333 2.667v26.667M22.667 2.667v26.667M2.667 16h26.667M2.667 9.333h6.667M2.667 22.667h6.667M22.667 22.667h6.667M22.667 9.333h6.667"/></symbol><symbol id="icon-arrow-left-1" viewBox="0 0 32 32"><path stroke-linejoin="round" stroke-linecap="round" stroke-width="2.667" d="M25.333 16H6.666M16 25.333 6.667 16 16 6.667"/></symbol><symbol id="icon-arrow-right" viewBox="0 0 32 32"><path stroke-linejoin="round" stroke-linecap="round" stroke-width="2.667" d="M6.667 16h18.667M16 25.333 25.333 16 16 6.667"/></symbol><symbol id="icon-search" viewBox="0 0 32 32"><path fill="none" stroke-linejoin="round" stroke-linecap="round" stroke-width="2.667" d="M14.667 25.333c5.891 0 10.667-4.776 10.667-10.667S20.558 3.999 14.667 3.999 4 8.775 4 14.666s4.776 10.667 10.667 10.667zM28 28.001l-5.8-5.8"/></symbol><symbol id="icon-close" viewBox="9 9 15 15"><path d="M23.733 10.304 22.229 8.8l-5.963 5.963L10.303 8.8l-1.504 1.504 5.963 5.963-5.963 5.963 1.504 1.504 5.963-5.963 5.963 5.963 1.504-1.504-5.963-5.963 5.963-5.963z"/></symbol><symbol id="icon-heart" viewBox="0 0 32 32"><path fill="#ff6b08" style="fill:var(--color2,#ff6b08)" d="m16 30.583-2.24-2.24C5.44 20.983 0 16.023 0 9.943c0-4.96 3.84-8.8 8.8-8.8 2.72 0 5.44 1.28 7.2 3.36 1.76-2.08 4.48-3.36 7.2-3.36 4.96 0 8.8 3.84 8.8 8.8 0 6.08-5.44 11.04-13.76 18.4L16 30.583z"/></symbol><symbol id="icon-arrow" viewBox="0 0 23 32"><path d="M10.206 2.149c-.275.038-.312.161-.208.568.047.17.151.218.502.265.237.028.71.189 1.051.36 1.24.615 3.749 3.446 5.179 5.86 1.041 1.742.975 2.452-.284 3.011-.246.114-.445.237-.445.293 0 .208.814 1.884.918 1.884.066 0 .322-.066.568-.151 1.127-.379 1.657-1.202 1.439-2.225-.18-.852-2.017-3.853-3.579-5.851-2.215-2.859-3.938-4.204-5.141-4.014zM8.568 2.982c-.805.606-.805.596-.691.909.047.151.114.275.133.275.047 0 1.183-.833 1.183-.871.009-.019-.028-.17-.076-.35l-.085-.312-.464.35zM15.811 4.582c0 .019.076.095.17.161.142.123.151.114.028-.038s-.199-.199-.199-.123zM6.258 5.311c-.227.265-.369.511-.331.577.038.057.028.076-.038.038-.17-.104-1.96 2.348-1.846 2.528.028.057.019.066-.038.038-.095-.057-1.193 1.695-1.714 2.727-.151.312-.312.748-.341.975l-.057.398.748-.492c.72-.483.738-.502.644-.767-.104-.312-.038-.805.161-1.221.085-.161.123-.341.085-.398-.028-.057-.019-.076.019-.028.114.095 1.013-1.335.937-1.467-.038-.057-.028-.076.028-.047.057.038.237-.142.407-.388.473-.663 1.401-1.808 1.818-2.253l.369-.388-.227-.151c-.227-.151-.246-.142-.625.322zM16.568 5.529c0 .019.076.095.17.161.142.123.151.114.028-.038s-.199-.199-.199-.123zM16.852 5.908c0 .019.076.095.17.161.142.123.151.114.028-.038s-.199-.199-.199-.123zM17.325 6.533c.114.151.227.284.246.284.028 0-.038-.133-.151-.284-.114-.161-.227-.284-.246-.284-.028 0 .038.123.151.284z"/><path d="M18.452 8.208c.966 1.524 1.591 2.689 1.77 3.304.199.71.142 1.657-.151 2.253-.454.937-1.543 1.704-2.812 1.96l-.587.123-.028 5.169-.028 5.16-.303.625c-.369.738-.918 1.288-1.704 1.685-.928.464-1.733.578-4.147.578-2.32 0-3.209-.114-4.052-.521-.398-.189-.436-.189-.293-.038.085.104.199.18.246.18s.265.085.473.189c.218.104.511.189.663.189.142 0 .265.038.265.085 0 .104-.066.095 2.651.161 2.367.057 3.456 0 3.342-.18-.038-.066 0-.076.104-.038.227.085.644-.019.559-.151-.028-.057-.009-.066.057-.028.312.199 1.96-1.013 1.827-1.344-.028-.095-.009-.123.066-.076.142.085.521-.748.436-.956-.028-.085 0-.189.057-.227.085-.047.104-1.363.095-5.131-.019-3.872.009-5.084.095-5.141.076-.047.085-.028.038.057s-.019.104.104.066c.104-.038.312-.085.464-.123.161-.038.341-.114.417-.17s.151-.095.161-.085a.303.303 0 0 0 .151-.009c.587-.189.691-.237.672-.322-.009-.047.038-.123.123-.151.095-.038.123-.019.076.066-.038.057.114-.038.35-.237.256-.208.417-.417.407-.54 0-.104.028-.17.066-.142.076.047.369-.322.369-.464 0-.038-.057-.047-.114-.009-.066.038-.028-.028.095-.142.464-.454.189-2.035-.606-3.484-.511-.928-1.827-3.039-1.931-3.105-.047-.028.199.407.559.966zm2.064 5.255c-.028.076-.057.047-.057-.057-.009-.104.019-.161.047-.123.028.028.038.114.009.18zM15.28 28.544c-.095.076-.218.142-.265.142-.057 0-.009-.066.095-.142.095-.076.218-.142.265-.142.057 0 .009.066-.095.142z"/><path d="M3.531 13.122c-.35.388-.653.748-.672.795-.057.17 1.079.492 1.903.549l.824.047v5.501c0 3.389.038 5.633.095 5.841.293 1.041 1.467 1.789 2.812 1.789.454 0 .398.114.634-1.269.085-.464.142-.852.123-.862a13.285 13.285 0 0 0-.71-.133c-1.07-.17-1.704-.559-1.979-1.231-.123-.284-.151-1.174-.189-5.69-.019-2.944-.057-5.444-.085-5.567-.038-.18-.104-.208-.445-.208-.218 0-.653-.066-.966-.142s-.596-.133-.634-.142c-.038 0-.35.322-.71.72zM14.485 14.031v1.477l.36.142c.189.076.379.123.426.095.038-.019.066-.312.066-.653 0-.331.038-.606.085-.606.076 0-.559-1.392-.805-1.742-.114-.17-.133-.028-.133 1.288z"/><path d="M2.045 15.167c.104.17 1.382.729 1.799.795.663.095.492-.104-.208-.237a5.745 5.745 0 0 1-1.136-.388c-.275-.133-.473-.208-.454-.17zM14.485 18.765v2.679l.379.199c.199.114.388.18.417.151.038-.028.057-1.108.057-2.395v-2.348l-.852-.966v2.679zM14.485 22.835c0 .436-.047.947-.104 1.146-.199.729-.89 1.231-1.884 1.382-.237.028-.426.104-.426.151 0 .057.085.559.189 1.127l.189 1.023.379-.057c1.089-.151 1.856-.615 2.225-1.335.218-.436.237-.578.265-2.045l.038-1.581-.322-.227c-.568-.426-.549-.445-.549.417z"/></symbol></defs><symbol id="icon-github" viewBox="0 0 32 32"><path d="M16 .395c-8.836 0-16 7.163-16 16 0 7.069 4.585 13.067 10.942 15.182.8.148 1.094-.347 1.094-.77 0-.381-.015-1.642-.022-2.979-4.452.968-5.391-1.888-5.391-1.888-.728-1.849-1.776-2.341-1.776-2.341-1.452-.993.11-.973.11-.973 1.606.113 2.452 1.649 2.452 1.649 1.427 2.446 3.743 1.739 4.656 1.33.143-1.034.558-1.74 1.016-2.14-3.554-.404-7.29-1.777-7.29-7.907 0-1.747.625-3.174 1.649-4.295-.166-.403-.714-2.03.155-4.234 0 0 1.344-.43 4.401 1.64a15.353 15.353 0 0 1 4.005-.539c1.359.006 2.729.184 4.008.539 3.054-2.07 4.395-1.64 4.395-1.64.871 2.204.323 3.831.157 4.234 1.026 1.12 1.647 2.548 1.647 4.295 0 6.145-3.743 7.498-7.306 7.895.574.497 1.085 1.47 1.085 2.963 0 2.141-.019 3.864-.019 4.391 0 .426.288.925 1.099.768C27.421 29.457 32 23.462 32 16.395c0-8.837-7.164-16-16-16z"/></symbol><symbol id="icon-linkedin" viewBox="0 0 32 32"><path d="M29 0H3C1.35 0 0 1.35 0 3v26c0 1.65 1.35 3 3 3h26c1.65 0 3-1.35 3-3V3c0-1.65-1.35-3-3-3zM12 26H8V12h4v14zm-2-16c-1.106 0-2-.894-2-2s.894-2 2-2c1.106 0 2 .894 2 2s-.894 2-2 2zm16 16h-4v-8c0-1.106-.894-2-2-2s-2 .894-2 2v8h-4V12h4v2.481C18.825 13.35 20.087 12 21.5 12c2.488 0 4.5 2.238 4.5 5v9z"/></symbol><symbol id="icon-film" viewBox="0 0 32 32"><path d="M0 4v24h32V4H0zm6 22H2v-4h4v4zm0-8H2v-4h4v4zm0-8H2V6h4v4zm18 16H8V6h16v20zm6 0h-4v-4h4v4zm0-8h-4v-4h4v4zm0-8h-4V6h4v4zm-18 0v12l8-6z"/></symbol><symbol id="icon-play" viewBox="0 0 32 32"><path d="M16 0C7.163 0 0 7.163 0 16s7.163 16 16 16 16-7.163 16-16S24.837 0 16 0zm0 29C8.82 29 3 23.18 3 16S8.82 3 16 3s13 5.82 13 13-5.82 13-13 13zM12 9l12 7-12 7z"/></symbol></svg>