<svg aria-hidden="true" style="position: absolute; width: 0; height: 0; overflow: hidden;" version="1.1"
    xmlns="http://www.w3.org/2000/svg"
    xmlns:xlink="http://www.w3.org/1999/xlink">
    <defs>
        <symbol id="icon-film" viewBox="0 0 32 32">
            <path fill="none" stroke-linejoin="round" stroke-linecap="round" stroke-miterlimit="4" stroke-width="2.6667" d="M26.427 2.667h-20.853c-1.605 0-2.907 1.301-2.907 2.907v20.853c0 1.605 1.301 2.907 2.907 2.907h20.853c1.605 0 2.907-1.301 2.907-2.907v-20.853c0-1.605-1.301-2.907-2.907-2.907z"></path>
            <path fill="none" stroke-linejoin="round" stroke-linecap="round" stroke-miterlimit="4" stroke-width="2.6667" d="M9.333 2.667v26.667"></path>
            <path fill="none" stroke-linejoin="round" stroke-linecap="round" stroke-miterlimit="4" stroke-width="2.6667" d="M22.667 2.667v26.667"></path>
            <path fill="none" stroke-linejoin="round" stroke-linecap="round" stroke-miterlimit="4" stroke-width="2.6667" d="M2.667 16h26.667"></path>
            <path fill="none" stroke-linejoin="round" stroke-linecap="round" stroke-miterlimit="4" stroke-width="2.6667" d="M2.667 9.333h6.667"></path>
            <path fill="none" stroke-linejoin="round" stroke-linecap="round" stroke-miterlimit="4" stroke-width="2.6667" d="M2.667 22.667h6.667"></path>
            <path fill="none" stroke-linejoin="round" stroke-linecap="round" stroke-miterlimit="4" stroke-width="2.6667" d="M22.667 22.667h6.667"></path>
            <path fill="none" stroke-linejoin="round" stroke-linecap="round" stroke-miterlimit="4" stroke-width="2.6667" d="M22.667 9.333h6.667"></path>
        </symbol>
        <symbol id="icon-arrow-left-1" viewBox="0 0 32 32">
            <path stroke-linejoin="round" stroke-linecap="round" stroke-miterlimit="4" stroke-width="2.6667" d="M25.333 16h-18.667"></path>
            <path stroke-linejoin="round" stroke-linecap="round" stroke-miterlimit="4" stroke-width="2.6667" d="M16 25.333l-9.333-9.333 9.333-9.333"></path>
        </symbol>
        <symbol id="icon-arrow-right" viewBox="0 0 32 32">
            <path stroke-linejoin="round" stroke-linecap="round" stroke-miterlimit="4" stroke-width="2.6667" d="M6.667 16h18.667"></path>
            <path stroke-linejoin="round" stroke-linecap="round" stroke-miterlimit="4" stroke-width="2.6667" d="M16 25.333l9.333-9.333-9.333-9.333"></path>
        </symbol>
        <symbol id="icon-search" viewBox="0 0 32 32">
            <path fill="none" stroke-linejoin="round" stroke-linecap="round" stroke-miterlimit="4" stroke-width="2.6667" d="M14.667 25.333c5.891 0 10.667-4.776 10.667-10.667s-4.776-10.667-10.667-10.667c-5.891 0-10.667 4.776-10.667 10.667s4.776 10.667 10.667 10.667z"></path>
            <path fill="none" stroke-linejoin="round" stroke-linecap="round" stroke-miterlimit="4" stroke-width="2.6667" d="M28 28.001l-5.8-5.8"></path>
        </symbol>
        <symbol id="icon-close" viewBox="9 9 15 15">
            <path d="M23.733 10.304l-1.504-1.504-5.963 5.963-5.963-5.963-1.504 1.504 5.963 5.963-5.963 5.963 1.504 1.504 5.963-5.963 5.963 5.963 1.504-1.504-5.963-5.963 5.963-5.963z"></path>
        </symbol>
        <symbol id="icon-heart" viewBox="0 0 32 32">
            <path fill="#ff6b08" style="fill: var(--color2, #ff6b08)" d="M16 30.583l-2.24-2.24c-8.32-7.36-13.76-12.32-13.76-18.4 0-4.96 3.84-8.8 8.8-8.8 2.72 0 5.44 1.28 7.2 3.36 1.76-2.080 4.48-3.36 7.2-3.36 4.96 0 8.8 3.84 8.8 8.8 0 6.080-5.44 11.040-13.76 18.4l-2.24 2.24z"></path>
        </symbol>
        <symbol id="icon-arrow" viewBox="0 0 23 32">
            <path d="M10.206 2.149c-0.275 0.038-0.312 0.161-0.208 0.568 0.047 0.17 0.151 0.218 0.502 0.265 0.237 0.028 0.71 0.189 1.051 0.36 1.24 0.615 3.749 3.446 5.179 5.86 1.041 1.742 0.975 2.452-0.284 3.011-0.246 0.114-0.445 0.237-0.445 0.293 0 0.208 0.814 1.884 0.918 1.884 0.066 0 0.322-0.066 0.568-0.151 1.127-0.379 1.657-1.202 1.439-2.225-0.18-0.852-2.017-3.853-3.579-5.851-2.215-2.859-3.938-4.204-5.141-4.014z"></path>
            <path d="M8.568 2.982c-0.805 0.606-0.805 0.596-0.691 0.909 0.047 0.151 0.114 0.275 0.133 0.275 0.047 0 1.183-0.833 1.183-0.871 0.009-0.019-0.028-0.17-0.076-0.35l-0.085-0.312-0.464 0.35z"></path>
            <path d="M15.811 4.582c0 0.019 0.076 0.095 0.17 0.161 0.142 0.123 0.151 0.114 0.028-0.038s-0.199-0.199-0.199-0.123z"></path>
            <path d="M6.258 5.311c-0.227 0.265-0.369 0.511-0.331 0.577 0.038 0.057 0.028 0.076-0.038 0.038-0.17-0.104-1.96 2.348-1.846 2.528 0.028 0.057 0.019 0.066-0.038 0.038-0.095-0.057-1.193 1.695-1.714 2.727-0.151 0.312-0.312 0.748-0.341 0.975l-0.057 0.398 0.748-0.492c0.72-0.483 0.738-0.502 0.644-0.767-0.104-0.312-0.038-0.805 0.161-1.221 0.085-0.161 0.123-0.341 0.085-0.398-0.028-0.057-0.019-0.076 0.019-0.028 0.114 0.095 1.013-1.335 0.937-1.467-0.038-0.057-0.028-0.076 0.028-0.047 0.057 0.038 0.237-0.142 0.407-0.388 0.473-0.663 1.401-1.808 1.818-2.253l0.369-0.388-0.227-0.151c-0.227-0.151-0.246-0.142-0.625 0.322z"></path>
            <path d="M16.568 5.529c0 0.019 0.076 0.095 0.17 0.161 0.142 0.123 0.151 0.114 0.028-0.038s-0.199-0.199-0.199-0.123z"></path>
            <path d="M16.852 5.908c0 0.019 0.076 0.095 0.17 0.161 0.142 0.123 0.151 0.114 0.028-0.038s-0.199-0.199-0.199-0.123z"></path>
            <path d="M17.325 6.533c0.114 0.151 0.227 0.284 0.246 0.284 0.028 0-0.038-0.133-0.151-0.284-0.114-0.161-0.227-0.284-0.246-0.284-0.028 0 0.038 0.123 0.151 0.284z"></path>
            <path d="M18.452 8.208c0.966 1.524 1.591 2.689 1.77 3.304 0.199 0.71 0.142 1.657-0.151 2.253-0.454 0.937-1.543 1.704-2.812 1.96l-0.587 0.123-0.028 5.169-0.028 5.16-0.303 0.625c-0.369 0.738-0.918 1.288-1.704 1.685-0.928 0.464-1.733 0.578-4.147 0.578-2.32 0-3.209-0.114-4.052-0.521-0.398-0.189-0.436-0.189-0.293-0.038 0.085 0.104 0.199 0.18 0.246 0.18s0.265 0.085 0.473 0.189c0.218 0.104 0.511 0.189 0.663 0.189 0.142 0 0.265 0.038 0.265 0.085 0 0.104-0.066 0.095 2.651 0.161 2.367 0.057 3.456 0 3.342-0.18-0.038-0.066 0-0.076 0.104-0.038 0.227 0.085 0.644-0.019 0.559-0.151-0.028-0.057-0.009-0.066 0.057-0.028 0.312 0.199 1.96-1.013 1.827-1.344-0.028-0.095-0.009-0.123 0.066-0.076 0.142 0.085 0.521-0.748 0.436-0.956-0.028-0.085 0-0.189 0.057-0.227 0.085-0.047 0.104-1.363 0.095-5.131-0.019-3.872 0.009-5.084 0.095-5.141 0.076-0.047 0.085-0.028 0.038 0.057s-0.019 0.104 0.104 0.066c0.104-0.038 0.312-0.085 0.464-0.123 0.161-0.038 0.341-0.114 0.417-0.17s0.151-0.095 0.161-0.085c0.019 0.009 0.085 0.009 0.151-0.009 0.587-0.189 0.691-0.237 0.672-0.322-0.009-0.047 0.038-0.123 0.123-0.151 0.095-0.038 0.123-0.019 0.076 0.066-0.038 0.057 0.114-0.038 0.35-0.237 0.256-0.208 0.417-0.417 0.407-0.54 0-0.104 0.028-0.17 0.066-0.142 0.076 0.047 0.369-0.322 0.369-0.464 0-0.038-0.057-0.047-0.114-0.009-0.066 0.038-0.028-0.028 0.095-0.142 0.464-0.454 0.189-2.035-0.606-3.484-0.511-0.928-1.827-3.039-1.931-3.105-0.047-0.028 0.199 0.407 0.559 0.966zM20.516 13.463c-0.028 0.076-0.057 0.047-0.057-0.057-0.009-0.104 0.019-0.161 0.047-0.123 0.028 0.028 0.038 0.114 0.009 0.18zM15.28 28.544c-0.095 0.076-0.218 0.142-0.265 0.142-0.057 0-0.009-0.066 0.095-0.142 0.095-0.076 0.218-0.142 0.265-0.142 0.057 0 0.009 0.066-0.095 0.142z"></path>
            <path d="M3.531 13.122c-0.35 0.388-0.653 0.748-0.672 0.795-0.057 0.17 1.079 0.492 1.903 0.549l0.824 0.047v5.501c0 3.389 0.038 5.633 0.095 5.841 0.293 1.041 1.467 1.789 2.812 1.789 0.454 0 0.398 0.114 0.634-1.269 0.085-0.464 0.142-0.852 0.123-0.862-0.009-0.009-0.331-0.066-0.71-0.133-1.070-0.17-1.704-0.559-1.979-1.231-0.123-0.284-0.151-1.174-0.189-5.69-0.019-2.944-0.057-5.444-0.085-5.567-0.038-0.18-0.104-0.208-0.445-0.208-0.218 0-0.653-0.066-0.966-0.142s-0.596-0.133-0.634-0.142c-0.038 0-0.35 0.322-0.71 0.72z"></path>
            <path d="M14.485 14.031v1.477l0.36 0.142c0.189 0.076 0.379 0.123 0.426 0.095 0.038-0.019 0.066-0.312 0.066-0.653 0-0.331 0.038-0.606 0.085-0.606 0.076 0-0.559-1.392-0.805-1.742-0.114-0.17-0.133-0.028-0.133 1.288z"></path>
            <path d="M2.045 15.167c0.104 0.17 1.382 0.729 1.799 0.795 0.663 0.095 0.492-0.104-0.208-0.237-0.35-0.076-0.852-0.246-1.136-0.388-0.275-0.133-0.473-0.208-0.454-0.17z"></path>
            <path d="M14.485 18.765v2.679l0.379 0.199c0.199 0.114 0.388 0.18 0.417 0.151 0.038-0.028 0.057-1.108 0.057-2.395v-2.348l-0.852-0.966v2.679z"></path>
            <path d="M14.485 22.835c0 0.436-0.047 0.947-0.104 1.146-0.199 0.729-0.89 1.231-1.884 1.382-0.237 0.028-0.426 0.104-0.426 0.151 0 0.057 0.085 0.559 0.189 1.127l0.189 1.023 0.379-0.057c1.089-0.151 1.856-0.615 2.225-1.335 0.218-0.436 0.237-0.578 0.265-2.045l0.038-1.581-0.322-0.227c-0.568-0.426-0.549-0.445-0.549 0.417z"></path>
        </symbol>
    </defs>
    <symbol id="icon-github" viewBox="0 0 32 32">
        <path d="M16 0.395c-8.836 0-16 7.163-16 16 0 7.069 4.585 13.067 10.942 15.182 0.8 0.148 1.094-0.347 1.094-0.77 0-0.381-0.015-1.642-0.022-2.979-4.452 0.968-5.391-1.888-5.391-1.888-0.728-1.849-1.776-2.341-1.776-2.341-1.452-0.993 0.11-0.973 0.11-0.973 1.606 0.113 2.452 1.649 2.452 1.649 1.427 2.446 3.743 1.739 4.656 1.33 0.143-1.034 0.558-1.74 1.016-2.14-3.554-0.404-7.29-1.777-7.29-7.907 0-1.747 0.625-3.174 1.649-4.295-0.166-0.403-0.714-2.030 0.155-4.234 0 0 1.344-0.43 4.401 1.64 1.276-0.355 2.645-0.532 4.005-0.539 1.359 0.006 2.729 0.184 4.008 0.539 3.054-2.070 4.395-1.64 4.395-1.64 0.871 2.204 0.323 3.831 0.157 4.234 1.026 1.12 1.647 2.548 1.647 4.295 0 6.145-3.743 7.498-7.306 7.895 0.574 0.497 1.085 1.47 1.085 2.963 0 2.141-0.019 3.864-0.019 4.391 0 0.426 0.288 0.925 1.099 0.768 6.354-2.118 10.933-8.113 10.933-15.18 0-8.837-7.164-16-16-16z"></path>
    </symbol>
    <symbol id="icon-linkedin" viewBox="0 0 32 32">
        <path d="M29 0h-26c-1.65 0-3 1.35-3 3v26c0 1.65 1.35 3 3 3h26c1.65 0 3-1.35 3-3v-26c0-1.65-1.35-3-3-3zM12 26h-4v-14h4v14zM10 10c-1.106 0-2-0.894-2-2s0.894-2 2-2c1.106 0 2 0.894 2 2s-0.894 2-2 2zM26 26h-4v-8c0-1.106-0.894-2-2-2s-2 0.894-2 2v8h-4v-14h4v2.481c0.825-1.131 2.087-2.481 3.5-2.481 2.488 0 4.5 2.238 4.5 5v9z"></path>
    </symbol>
    <symbol id="icon-film" viewBox="0 0 32 32">
        <path d="M0 4v24h32v-24h-32zM6 26h-4v-4h4v4zM6 18h-4v-4h4v4zM6 10h-4v-4h4v4zM24 26h-16v-20h16v20zM30 26h-4v-4h4v4zM30 18h-4v-4h4v4zM30 10h-4v-4h4v4zM12 10v12l8-6z"></path>
    </symbol>
    <symbol id="icon-play" viewBox="0 0 32 32">
        <path d="M16 0c-8.837 0-16 7.163-16 16s7.163 16 16 16 16-7.163 16-16-7.163-16-16-16zM16 29c-7.18 0-13-5.82-13-13s5.82-13 13-13 13 5.82 13 13-5.82 13-13 13zM12 9l12 7-12 7z"></path>
    </symbol>
</svg>
